<svg width="14" height="10" viewBox="0 0 14 10" fill="none" xmlns="http://www.w3.org/2000/svg">
<path d="M9.17119 9.11561C9.01314 9.11566 8.85861 9.0689 8.72711 8.98122C8.59561 8.89353 8.49303 8.76887 8.43231 8.62294C8.37159 8.47702 8.35546 8.31638 8.38595 8.16129C8.41643 8.00621 8.49218 7.86363 8.60361 7.75155L11.6333 4.7037L8.61533 1.65663C8.46653 1.50579 8.38365 1.30208 8.38488 1.0902C8.38611 0.87832 8.47135 0.675584 8.6219 0.526487C8.77244 0.377389 8.97599 0.29411 9.18787 0.294928C9.39975 0.295745 9.60266 0.380592 9.75205 0.530847L13.3286 4.14178C13.4772 4.29171 13.5605 4.49432 13.5604 4.70543C13.5602 4.91653 13.4766 5.11902 13.3278 5.26874L9.73877 8.87967C9.66441 8.9545 9.57597 9.01387 9.47856 9.05436C9.38115 9.09486 9.27668 9.11567 9.17119 9.11561Z" fill="white"/>
<path d="M12.761 5.50466H1.24084C1.02867 5.50466 0.825185 5.42037 0.675156 5.27034C0.525127 5.12031 0.440842 4.91683 0.440842 4.70466C0.440842 4.49248 0.525127 4.289 0.675156 4.13897C0.825185 3.98894 1.02867 3.90466 1.24084 3.90466H12.761C12.9731 3.90466 13.1766 3.98894 13.3266 4.13897C13.4767 4.289 13.5604 4.49325 13.5604 4.70543C13.5604 4.9176 13.4767 5.12031 13.3266 5.27034C13.1766 5.42037 12.9731 5.50466 12.761 5.50466Z" fill="white"/>
</svg>
