<svg width="56" height="71" viewBox="0 0 56 71" fill="none" xmlns="http://www.w3.org/2000/svg">
<path d="M6.97528 13.7392H4.53928C4.18928 13.7392 3.89528 14.0332 3.89528 14.3832V23.8892C3.89528 24.2252 4.16128 24.4912 4.49728 24.4912H5.70128C6.03728 24.4912 6.30328 24.2252 6.30328 23.8892V20.9492H7.75928C9.71928 20.9492 11.5253 19.8572 11.5253 17.1412C11.5253 14.5092 9.50928 13.7392 6.97528 13.7392ZM7.11528 18.9612H6.30328V15.8112H7.05928C8.44528 15.8112 9.07528 16.3712 9.07528 17.2952C9.07528 18.5552 8.47328 18.9612 7.11528 18.9612ZM19.3469 13.4872C15.2869 13.4872 14.1809 16.5812 14.1809 19.0732C14.1809 21.6352 15.2869 24.7852 19.3469 24.7852C23.4069 24.7852 24.5129 21.6352 24.5129 19.0872C24.5129 16.5812 23.4069 13.4872 19.3469 13.4872ZM19.3469 22.6432C17.8349 22.6432 16.7429 21.7192 16.7429 19.0452C16.7429 16.4272 17.8349 15.5872 19.3469 15.5872C20.8589 15.5872 21.9509 16.4272 21.9509 19.0452C21.9509 21.7192 20.8589 22.6432 19.3469 22.6432ZM29.6861 13.7392H28.4821C28.1461 13.7392 27.8801 14.0052 27.8801 14.3412V23.8892C27.8801 24.2252 28.1461 24.4912 28.4821 24.4912H29.6861C30.0221 24.4912 30.2881 24.2252 30.2881 23.8892V14.3412C30.2881 14.0052 30.0221 13.7392 29.6861 13.7392ZM42.4737 13.7392H41.3397C41.0317 13.7392 40.7797 13.9912 40.7797 14.2992V20.8512L37.5177 14.2572C37.3637 13.9352 37.0277 13.7392 36.6637 13.7392H34.6337C34.3117 13.7392 34.0457 14.0052 34.0457 14.3272V23.9312C34.0457 24.2392 34.2977 24.4912 34.6057 24.4912H35.7257C36.0337 24.4912 36.2857 24.2392 36.2857 23.9312V16.4272L40.0097 23.9592C40.1637 24.2812 40.4997 24.4912 40.8637 24.4912H42.4457C42.7677 24.4912 43.0337 24.2252 43.0337 23.9032V14.2992C43.0337 13.9912 42.7817 13.7392 42.4737 13.7392ZM52.799 13.7392H46.079C45.799 13.7392 45.561 13.9772 45.561 14.2572V15.2932C45.561 15.5732 45.799 15.8112 46.079 15.8112H48.235V23.8892C48.235 24.2252 48.501 24.4912 48.837 24.4912H50.041C50.377 24.4912 50.643 24.2252 50.643 23.8892V15.8112H52.799C53.079 15.8112 53.317 15.5732 53.317 15.2932V14.2572C53.317 13.9772 53.079 13.7392 52.799 13.7392Z" fill="#E95D08"/>
<path d="M13.8209 33.9712C5.18094 33.9712 2.30094 41.9712 2.30094 50.1712C2.30094 58.2112 5.18094 66.2112 13.8209 66.2112C22.4209 66.2112 25.3409 58.2112 25.3409 50.2112C25.3409 41.9712 22.4209 33.9712 13.8209 33.9712ZM13.8209 60.3312C11.4609 60.3312 9.34094 58.3712 9.34094 50.2112C9.34094 41.8112 11.4609 39.6512 13.8209 39.6512C16.1409 39.6512 18.3009 41.8112 18.3009 50.1712C18.3009 58.3712 16.1409 60.3312 13.8209 60.3312ZM46.24 48.7712C48 48.4512 50.96 46.3712 50.96 42.4112C50.96 36.3312 47 34.1712 40.64 34.1712C38.28 34.1712 35.48 34.7312 33.6 35.4112C32.8 35.6912 32.32 36.5712 32.56 37.3712L33.36 40.2512C33.56 41.0112 34.44 41.4112 35.16 41.1312C36.96 40.4112 38.88 40.0512 40.28 40.0512C42.48 40.0512 44.24 40.9712 44.24 43.1712C44.24 45.7312 42.56 47.0912 37.64 47.0912H37.08C36.36 47.0912 35.76 47.6912 35.76 48.4112V51.0912C35.76 51.8112 36.36 52.4112 37.08 52.4112H38.96C42.72 52.4112 44.76 53.6912 44.76 56.0912C44.76 59.5312 42.16 60.2512 39 60.2512C37.72 60.2512 35.92 59.9712 34.48 59.6112C33.64 59.4112 32.84 59.9312 32.68 60.7712L32.12 63.8512C31.96 64.6912 32.52 65.4912 33.36 65.6112C35.44 65.9712 37.92 66.1712 39.12 66.1712C47.84 66.1712 51.76 62.1712 51.76 56.5712C51.76 51.8112 49.36 49.3312 46.24 48.7712Z" fill="#E95D08"/>
</svg>
