<svg width="56" height="71" viewBox="0 0 56 71" fill="none" xmlns="http://www.w3.org/2000/svg">
<path d="M6.97528 13.748H4.53928C4.18928 13.748 3.89528 14.042 3.89528 14.392V23.898C3.89528 24.234 4.16128 24.5 4.49728 24.5H5.70128C6.03728 24.5 6.30328 24.234 6.30328 23.898V20.958H7.75928C9.71928 20.958 11.5253 19.866 11.5253 17.15C11.5253 14.518 9.50928 13.748 6.97528 13.748ZM7.11528 18.97H6.30328V15.82H7.05928C8.44528 15.82 9.07528 16.38 9.07528 17.304C9.07528 18.564 8.47328 18.97 7.11528 18.97ZM19.3469 13.496C15.2869 13.496 14.1809 16.59 14.1809 19.082C14.1809 21.644 15.2869 24.794 19.3469 24.794C23.4069 24.794 24.5129 21.644 24.5129 19.096C24.5129 16.59 23.4069 13.496 19.3469 13.496ZM19.3469 22.652C17.8349 22.652 16.7429 21.728 16.7429 19.054C16.7429 16.436 17.8349 15.596 19.3469 15.596C20.8589 15.596 21.9509 16.436 21.9509 19.054C21.9509 21.728 20.8589 22.652 19.3469 22.652ZM29.6861 13.748H28.4821C28.1461 13.748 27.8801 14.014 27.8801 14.35V23.898C27.8801 24.234 28.1461 24.5 28.4821 24.5H29.6861C30.0221 24.5 30.2881 24.234 30.2881 23.898V14.35C30.2881 14.014 30.0221 13.748 29.6861 13.748ZM42.4737 13.748H41.3397C41.0317 13.748 40.7797 14 40.7797 14.308V20.86L37.5177 14.266C37.3637 13.944 37.0277 13.748 36.6637 13.748H34.6337C34.3117 13.748 34.0457 14.014 34.0457 14.336V23.94C34.0457 24.248 34.2977 24.5 34.6057 24.5H35.7257C36.0337 24.5 36.2857 24.248 36.2857 23.94V16.436L40.0097 23.968C40.1637 24.29 40.4997 24.5 40.8637 24.5H42.4457C42.7677 24.5 43.0337 24.234 43.0337 23.912V14.308C43.0337 14 42.7817 13.748 42.4737 13.748ZM52.799 13.748H46.079C45.799 13.748 45.561 13.986 45.561 14.266V15.302C45.561 15.582 45.799 15.82 46.079 15.82H48.235V23.898C48.235 24.234 48.501 24.5 48.837 24.5H50.041C50.377 24.5 50.643 24.234 50.643 23.898V15.82H52.799C53.079 15.82 53.317 15.582 53.317 15.302V14.266C53.317 13.986 53.079 13.748 52.799 13.748Z" fill="#E95D08"/>
<path d="M13.8209 33.98C5.18094 33.98 2.30094 41.98 2.30094 50.18C2.30094 58.22 5.18094 66.22 13.8209 66.22C22.4209 66.22 25.3409 58.22 25.3409 50.22C25.3409 41.98 22.4209 33.98 13.8209 33.98ZM13.8209 60.34C11.4609 60.34 9.34094 58.38 9.34094 50.22C9.34094 41.82 11.4609 39.66 13.8209 39.66C16.1409 39.66 18.3009 41.82 18.3009 50.18C18.3009 58.38 16.1409 60.34 13.8209 60.34ZM45.56 34.54H42.96C42.32 34.54 41.72 34.7 41.2 35.06C39.4 36.26 36.88 37.34 34.8 38.06C34.08 38.3 33.64 39.02 33.8 39.78L34.4 42.42C34.56 43.14 35.28 43.58 36 43.42C37.6 43.02 39.08 42.54 40.24 42.02V63.78C40.24 64.74 41 65.5 41.96 65.5H45.4C46.36 65.5 47.12 64.74 47.12 63.78V36.1C47.12 35.22 46.44 34.54 45.56 34.54Z" fill="#E95D08"/>
</svg>
