<svg width="34" height="44" viewBox="0 0 34 44" fill="none" xmlns="http://www.w3.org/2000/svg">
<path d="M4.98587 10.8492H3.59387C3.39387 10.8492 3.22587 11.0172 3.22587 11.2172V16.6492C3.22587 16.8412 3.37787 16.9932 3.56987 16.9932H4.25787C4.44987 16.9932 4.60187 16.8412 4.60187 16.6492V14.9692H5.43387C6.55387 14.9692 7.58587 14.3452 7.58587 12.7932C7.58587 11.2892 6.43387 10.8492 4.98587 10.8492ZM5.06587 13.8332H4.60187V12.0332H5.03387C5.82587 12.0332 6.18587 12.3532 6.18587 12.8812C6.18587 13.6012 5.84187 13.8332 5.06587 13.8332ZM12.0554 10.7052C9.73537 10.7052 9.10337 12.4732 9.10337 13.8972C9.10337 15.3612 9.73537 17.1612 12.0554 17.1612C14.3754 17.1612 15.0074 15.3612 15.0074 13.9052C15.0074 12.4732 14.3754 10.7052 12.0554 10.7052ZM12.0554 15.9372C11.1914 15.9372 10.5674 15.4092 10.5674 13.8812C10.5674 12.3852 11.1914 11.9052 12.0554 11.9052C12.9194 11.9052 13.5434 12.3852 13.5434 13.8812C13.5434 15.4092 12.9194 15.9372 12.0554 15.9372ZM17.9635 10.8492H17.2755C17.0835 10.8492 16.9315 11.0012 16.9315 11.1932V16.6492C16.9315 16.8412 17.0835 16.9932 17.2755 16.9932H17.9635C18.1555 16.9932 18.3075 16.8412 18.3075 16.6492V11.1932C18.3075 11.0012 18.1555 10.8492 17.9635 10.8492ZM25.2707 10.8492H24.6227C24.4467 10.8492 24.3027 10.9932 24.3027 11.1692V14.9132L22.4387 11.1452C22.3507 10.9612 22.1587 10.8492 21.9507 10.8492H20.7907C20.6067 10.8492 20.4547 11.0012 20.4547 11.1852V16.6732C20.4547 16.8492 20.5987 16.9932 20.7747 16.9932H21.4147C21.5907 16.9932 21.7347 16.8492 21.7347 16.6732V12.3852L23.8627 16.6892C23.9507 16.8732 24.1427 16.9932 24.3507 16.9932H25.2547C25.4387 16.9932 25.5907 16.8412 25.5907 16.6572V11.1692C25.5907 10.9932 25.4467 10.8492 25.2707 10.8492ZM31.1709 10.8492H27.3309C27.1709 10.8492 27.0349 10.9852 27.0349 11.1452V11.7372C27.0349 11.8972 27.1709 12.0332 27.3309 12.0332H28.5629V16.6492C28.5629 16.8412 28.7149 16.9932 28.9069 16.9932H29.5949C29.7869 16.9932 29.9389 16.8412 29.9389 16.6492V12.0332H31.1709C31.3309 12.0332 31.4669 11.8972 31.4669 11.7372V11.1452C31.4669 10.9852 31.3309 10.8492 31.1709 10.8492Z" fill="#E95D08"/>
<path d="M8.256 22.0812C3.072 22.0812 1.344 26.8812 1.344 31.8012C1.344 36.6252 3.072 41.4252 8.256 41.4252C13.416 41.4252 15.168 36.6252 15.168 31.8252C15.168 26.8812 13.416 22.0812 8.256 22.0812ZM8.256 37.8972C6.84 37.8972 5.568 36.7212 5.568 31.8252C5.568 26.7852 6.84 25.4892 8.256 25.4892C9.648 25.4892 10.944 26.7852 10.944 31.8012C10.944 36.7212 9.648 37.8972 8.256 37.8972ZM31.4274 34.4892H30.3474V23.5452C30.3474 22.9932 29.8914 22.5372 29.3394 22.5372H27.3234C26.6994 22.5372 26.0994 22.8492 25.7634 23.3772L18.5154 34.4172C18.3234 34.7052 18.2274 35.0412 18.2274 35.4012V36.8412C18.2274 37.3452 18.6354 37.7532 19.1394 37.7532H26.5554V40.0332C26.5554 40.5612 26.9874 40.9932 27.5154 40.9932H29.4114C29.9394 40.9932 30.3474 40.5612 30.3474 40.0332V37.7532H31.4274C31.8834 37.7532 32.2434 37.3932 32.2434 36.9372V35.3052C32.2434 34.8492 31.8834 34.4892 31.4274 34.4892ZM26.5554 34.4892H22.0914L26.5554 27.4572V34.4892Z" fill="#E95D08"/>
</svg>
