<svg width="34" height="44" viewBox="0 0 34 44" fill="none" xmlns="http://www.w3.org/2000/svg">
<path d="M4.98587 10.8384H3.59387C3.39387 10.8384 3.22587 11.0064 3.22587 11.2064V16.6384C3.22587 16.8304 3.37787 16.9824 3.56987 16.9824H4.25787C4.44987 16.9824 4.60187 16.8304 4.60187 16.6384V14.9584H5.43387C6.55387 14.9584 7.58587 14.3344 7.58587 12.7824C7.58587 11.2784 6.43387 10.8384 4.98587 10.8384ZM5.06587 13.8224H4.60187V12.0224H5.03387C5.82587 12.0224 6.18587 12.3424 6.18587 12.8704C6.18587 13.5904 5.84187 13.8224 5.06587 13.8224ZM12.0554 10.6944C9.73537 10.6944 9.10337 12.4624 9.10337 13.8864C9.10337 15.3504 9.73537 17.1504 12.0554 17.1504C14.3754 17.1504 15.0074 15.3504 15.0074 13.8944C15.0074 12.4624 14.3754 10.6944 12.0554 10.6944ZM12.0554 15.9264C11.1914 15.9264 10.5674 15.3984 10.5674 13.8704C10.5674 12.3744 11.1914 11.8944 12.0554 11.8944C12.9194 11.8944 13.5434 12.3744 13.5434 13.8704C13.5434 15.3984 12.9194 15.9264 12.0554 15.9264ZM17.9635 10.8384H17.2755C17.0835 10.8384 16.9315 10.9904 16.9315 11.1824V16.6384C16.9315 16.8304 17.0835 16.9824 17.2755 16.9824H17.9635C18.1555 16.9824 18.3075 16.8304 18.3075 16.6384V11.1824C18.3075 10.9904 18.1555 10.8384 17.9635 10.8384ZM25.2707 10.8384H24.6227C24.4467 10.8384 24.3027 10.9824 24.3027 11.1584V14.9024L22.4387 11.1344C22.3507 10.9504 22.1587 10.8384 21.9507 10.8384H20.7907C20.6067 10.8384 20.4547 10.9904 20.4547 11.1744V16.6624C20.4547 16.8384 20.5987 16.9824 20.7747 16.9824H21.4147C21.5907 16.9824 21.7347 16.8384 21.7347 16.6624V12.3744L23.8627 16.6784C23.9507 16.8624 24.1427 16.9824 24.3507 16.9824H25.2547C25.4387 16.9824 25.5907 16.8304 25.5907 16.6464V11.1584C25.5907 10.9824 25.4467 10.8384 25.2707 10.8384ZM31.1709 10.8384H27.3309C27.1709 10.8384 27.0349 10.9744 27.0349 11.1344V11.7264C27.0349 11.8864 27.1709 12.0224 27.3309 12.0224H28.5629V16.6384C28.5629 16.8304 28.7149 16.9824 28.9069 16.9824H29.5949C29.7869 16.9824 29.9389 16.8304 29.9389 16.6384V12.0224H31.1709C31.3309 12.0224 31.4669 11.8864 31.4669 11.7264V11.1344C31.4669 10.9744 31.3309 10.8384 31.1709 10.8384Z" fill="#E95D08"/>
<path d="M8.256 22.0704C3.072 22.0704 1.344 26.8704 1.344 31.7904C1.344 36.6144 3.072 41.4144 8.256 41.4144C13.416 41.4144 15.168 36.6144 15.168 31.8144C15.168 26.8704 13.416 22.0704 8.256 22.0704ZM8.256 37.8864C6.84 37.8864 5.568 36.7104 5.568 31.8144C5.568 26.7744 6.84 25.4784 8.256 25.4784C9.648 25.4784 10.944 26.7744 10.944 31.7904C10.944 36.7104 9.648 37.8864 8.256 37.8864ZM26.3874 29.1024C24.9714 29.1024 23.3634 29.7744 22.6434 30.5424C23.4354 28.0224 25.7634 25.8384 29.7714 25.4304C30.2034 25.3824 30.5154 24.9744 30.4194 24.5424L30.0114 22.9104C29.8914 22.4544 29.4594 22.1424 28.9794 22.1904C22.5954 22.8144 18.5394 26.5584 18.5394 33.6624C18.5394 39.3024 21.8274 41.4384 25.3314 41.4384C30.4194 41.4384 32.0994 37.8384 32.0994 34.6944C32.0994 31.7904 30.4914 29.1024 26.3874 29.1024ZM25.4034 38.0064C23.3634 38.0064 22.4274 36.0864 22.4274 34.0464V33.9024C22.8834 32.9424 24.1074 32.1984 25.4994 32.1984C27.2274 32.1984 28.1874 33.1344 28.1874 34.8864C28.1874 36.6144 27.2514 38.0064 25.4034 38.0064Z" fill="#E95D08"/>
</svg>
