<svg width="362" height="158" viewBox="0 0 362 158" fill="none" xmlns="http://www.w3.org/2000/svg">
<path d="M159.382 5.248H156.946C156.596 5.248 156.302 5.542 156.302 5.892V15.398C156.302 15.734 156.568 16 156.904 16H158.108C158.444 16 158.71 15.734 158.71 15.398V12.458H160.166C162.126 12.458 163.932 11.366 163.932 8.65C163.932 6.018 161.916 5.248 159.382 5.248ZM159.522 10.47H158.71V7.32H159.466C160.852 7.32 161.482 7.88 161.482 8.804C161.482 10.064 160.88 10.47 159.522 10.47ZM171.894 4.996C167.834 4.996 166.728 8.09 166.728 10.582C166.728 13.144 167.834 16.294 171.894 16.294C175.954 16.294 177.06 13.144 177.06 10.596C177.06 8.09 175.954 4.996 171.894 4.996ZM171.894 14.152C170.382 14.152 169.29 13.228 169.29 10.554C169.29 7.936 170.382 7.096 171.894 7.096C173.406 7.096 174.498 7.936 174.498 10.554C174.498 13.228 173.406 14.152 171.894 14.152ZM182.373 5.248H181.169C180.833 5.248 180.567 5.514 180.567 5.85V15.398C180.567 15.734 180.833 16 181.169 16H182.373C182.709 16 182.975 15.734 182.975 15.398V5.85C182.975 5.514 182.709 5.248 182.373 5.248ZM195.3 5.248H194.166C193.858 5.248 193.606 5.5 193.606 5.808V12.36L190.344 5.766C190.19 5.444 189.854 5.248 189.49 5.248H187.46C187.138 5.248 186.872 5.514 186.872 5.836V15.44C186.872 15.748 187.124 16 187.432 16H188.552C188.86 16 189.112 15.748 189.112 15.44V7.936L192.836 15.468C192.99 15.79 193.326 16 193.69 16H195.272C195.594 16 195.86 15.734 195.86 15.412V5.808C195.86 5.5 195.608 5.248 195.3 5.248ZM205.766 5.248H199.046C198.766 5.248 198.528 5.486 198.528 5.766V6.802C198.528 7.082 198.766 7.32 199.046 7.32H201.202V15.398C201.202 15.734 201.468 16 201.804 16H203.008C203.344 16 203.61 15.734 203.61 15.398V7.32H205.766C206.046 7.32 206.284 7.082 206.284 6.802V5.766C206.284 5.486 206.046 5.248 205.766 5.248Z" fill="#E95D08"/>
<path d="M36.0242 51.56H30.5442V45.72C30.5442 44.92 29.9042 44.32 29.1042 44.32H26.2642C25.4642 44.32 24.8642 44.92 24.8642 45.72V51.56H14.7042V45.76C14.7042 45 14.0642 44.4 13.3042 44.4H10.5442C9.78422 44.4 9.14422 45 9.14422 45.76V51.56H3.62422C2.90422 51.56 2.34422 52.12 2.34422 52.84V55.44C2.34422 56.16 2.90422 56.72 3.62422 56.72H9.14422V64.6C9.14422 65.36 9.78422 66 10.5442 66H13.3042C14.0642 66 14.7042 65.36 14.7042 64.6V56.72H24.8642V59.76C24.8642 66.12 23.1042 70.68 15.4242 74.36C14.7442 74.68 14.5442 75.56 15.0242 76.12L16.9042 78.36C17.4642 79 18.3842 79.2 19.1442 78.8C27.5042 74.4 30.5442 68.32 30.5442 59.56V56.72H36.0242C36.7442 56.72 37.3042 56.16 37.3042 55.44V52.84C37.3042 52.12 36.7442 51.56 36.0242 51.56ZM79.2227 52.96C79.7827 52.16 79.6227 51 78.8227 50.44L76.7827 48.96C76.1827 48.52 75.4627 48.32 74.7027 48.32H47.2627C46.5427 48.32 45.9427 48.92 45.9427 49.64V52.28C45.9427 53 46.5427 53.64 47.2627 53.64H71.3027C69.2227 56.76 65.0627 61.68 61.1427 65.44C59.1427 63.56 57.1027 61.72 55.1427 60.12C54.5427 59.64 53.6627 59.64 53.1027 60.16L51.0627 62C50.5427 62.48 50.5427 63.32 51.1027 63.76C55.9027 67.72 61.3427 73.4 64.5827 77.72C65.1027 78.4 66.0227 78.52 66.7027 78L69.1027 76.12C69.7427 75.6 69.8627 74.64 69.3427 74C68.1027 72.56 66.6627 70.96 65.1027 69.36C69.7827 64.8 75.0627 58.76 79.2227 52.96ZM94.3992 46H91.5192C90.7192 46 90.0792 46.64 90.0792 47.44V63.8C90.0792 64.6 90.7192 65.24 91.5192 65.24H94.3992C95.1992 65.24 95.7992 64.6 95.7992 63.8V47.44C95.7992 46.64 95.1992 46 94.3992 46ZM112.759 45.4H109.839C109.039 45.4 108.359 46.08 108.359 46.88V60.08C108.359 66.24 105.919 70.84 98.2392 73.96C97.5192 74.24 97.2792 75.12 97.7592 75.72L99.6792 78.12C100.239 78.8 101.239 79.04 102.039 78.64C110.479 74.68 114.239 68.68 114.239 60.24V46.88C114.239 46.08 113.559 45.4 112.759 45.4ZM156.745 58.96H126.825C126.025 58.96 125.385 59.6 125.385 60.4V63.32C125.385 64.12 126.025 64.8 126.825 64.8H156.745C157.545 64.8 158.225 64.12 158.225 63.32V60.4C158.225 59.6 157.545 58.96 156.745 58.96ZM201.684 56.04V53.44C201.684 52.72 201.084 52.12 200.364 52.12H187.804V45.8C187.804 45 187.164 44.36 186.364 44.36H183.484C182.684 44.36 182.044 45 182.044 45.8V52.12H169.644C168.924 52.12 168.324 52.72 168.324 53.44V56.04C168.324 56.76 168.924 57.36 169.644 57.36H182.044V72.12C182.044 73.48 181.604 73.92 180.324 73.92C179.604 73.92 178.644 73.88 177.724 73.8C177.004 73.76 176.404 74.32 176.404 75.04V77.72C176.404 78.48 177.004 79.08 177.764 79.12C179.324 79.2 180.804 79.28 181.924 79.28C185.964 79.28 187.804 77.52 187.804 72.8V57.36H200.364C201.084 57.36 201.684 56.76 201.684 56.04ZM177.964 62.6L175.444 61.6C174.724 61.32 173.884 61.6 173.564 62.28C172.084 65.32 169.644 68.52 167.164 71.04C166.644 71.56 166.724 72.4 167.284 72.8L169.524 74.36C170.164 74.8 171.044 74.72 171.564 74.16C174.364 71.24 176.724 67.84 178.604 64.28C178.924 63.64 178.644 62.88 177.964 62.6ZM202.884 70.6C201.004 67.6 198.884 64.72 196.364 61.76C195.844 61.16 194.964 61.04 194.284 61.44L191.964 62.8C191.364 63.16 191.204 64 191.684 64.52C194.204 67.48 196.324 70.4 197.964 73.4C198.364 74.08 199.204 74.36 199.884 73.96L202.404 72.52C203.084 72.12 203.284 71.28 202.884 70.6ZM197.604 51.08C200.044 51.08 202.004 49.08 202.004 46.68C202.004 44.24 200.044 42.28 197.604 42.28C195.164 42.28 193.204 44.24 193.204 46.68C193.204 49.08 195.164 51.08 197.604 51.08ZM197.604 43.96C199.084 43.96 200.324 45.2 200.324 46.68C200.324 48.16 199.084 49.4 197.604 49.4C196.124 49.4 194.884 48.16 194.884 46.68C194.884 45.2 196.124 43.96 197.604 43.96ZM243.873 52.2H224.953C225.673 50.52 226.353 48.88 226.873 47.24C227.113 46.52 226.673 45.72 225.953 45.52L223.233 44.72C222.473 44.52 221.713 44.92 221.473 45.68C219.753 51.2 215.873 58.4 211.273 62.92C210.753 63.44 210.833 64.32 211.433 64.76L213.753 66.4C214.433 66.88 215.353 66.8 215.913 66.2C218.273 63.72 220.473 60.68 222.313 57.44H230.513C229.953 64.44 227.193 70.28 219.153 74.8C218.513 75.16 218.353 76.04 218.913 76.56L221.153 78.64C221.793 79.24 222.753 79.32 223.513 78.84C232.153 73.24 235.473 65.84 236.273 57.44H243.873C244.593 57.44 245.193 56.84 245.193 56.12V53.52C245.193 52.8 244.593 52.2 243.873 52.2ZM260.656 63.68C259.976 61.84 259.016 59.6 258.056 57.88C257.736 57.28 257.016 57.04 256.416 57.32L254.256 58.28C253.696 58.52 253.416 59.2 253.736 59.76C254.696 61.44 255.696 63.76 256.296 65.52C256.496 66.12 257.176 66.44 257.776 66.2L259.976 65.24C260.576 64.96 260.896 64.32 260.656 63.68ZM263.896 63.96C264.096 64.56 264.736 64.88 265.336 64.64L267.576 63.72C268.216 63.48 268.496 62.76 268.296 62.12C267.656 60.24 266.696 58 265.816 56.24C265.496 55.64 264.816 55.4 264.216 55.64L262.056 56.52C261.456 56.76 261.216 57.4 261.496 57.96C262.376 59.72 263.336 62.16 263.896 63.96ZM277.256 56.8L274.696 56.24C273.976 56.08 273.296 56.56 273.176 57.28C271.776 65.4 267.376 71.36 259.736 74.4C259.096 74.64 258.896 75.44 259.296 76L260.896 78.24C261.376 78.88 262.256 79.08 262.976 78.76C270.976 75.08 276.576 67.48 278.296 58.32C278.416 57.6 277.976 56.96 277.256 56.8ZM313.977 64C309.057 60.8 303.017 57.52 297.737 55.16V45.76C297.737 44.96 297.097 44.32 296.297 44.32H293.377C292.577 44.32 291.897 44.96 291.897 45.76V77.84C291.897 78.64 292.577 79.28 293.377 79.28H296.297C297.097 79.28 297.737 78.64 297.737 77.84V61.32C302.057 63.44 306.537 66.04 310.257 68.72C310.937 69.2 311.937 69.12 312.457 68.44L314.297 66.04C314.817 65.4 314.657 64.44 313.977 64ZM342.275 46.72C331.595 46.72 324.115 55.6 324.115 64.88C324.115 71.08 327.235 77.04 332.195 77.04C338.835 77.04 343.395 66.96 343.995 52.08C350.195 52.64 352.835 56.48 352.835 61.92C352.835 67.2 350.635 71.64 342.195 73.44C341.475 73.6 341.115 74.4 341.435 75.08L342.755 77.72C343.155 78.48 343.995 78.88 344.835 78.64C355.435 75.76 358.555 69.12 358.555 61.8C358.555 53.88 354.235 46.72 342.275 46.72ZM332.315 70.96C330.675 70.96 329.395 68.4 329.395 64.72C329.395 59.08 332.675 54.04 338.475 52.48C338.075 64.64 334.675 70.96 332.315 70.96ZM58.9108 121.28C56.2708 121.28 53.4708 122.64 52.2708 124.04C53.5508 118.96 57.6308 115.04 64.4708 114.4C65.1108 114.36 65.5508 113.76 65.3908 113.12L64.8308 110.76C64.6708 110.08 64.0308 109.6 63.3508 109.68C52.7108 110.64 46.3108 117.4 46.3108 128.8C46.3108 137.92 51.4308 141.72 57.3508 141.72C65.3908 141.72 68.2308 136 68.2308 130.56C68.2308 125.48 65.4308 121.28 58.9108 121.28ZM57.4308 136.76C53.6708 136.76 51.9908 133.2 51.9508 129.48V129C52.7908 127.24 55.0708 125.8 57.6308 125.8C60.9508 125.8 62.5908 127.68 62.5908 130.84C62.5908 134.28 60.7508 136.76 57.4308 136.76ZM96.8658 112.88C92.3858 112.88 85.1858 114.64 78.1858 116.08C77.3858 116.24 76.8658 117.04 77.0658 117.84L77.7058 120.8C77.9058 121.6 78.7058 122.08 79.5058 121.84C85.6658 120 92.1058 118.4 95.7058 118.4C101.946 118.4 105.186 121.48 105.186 126.48C105.186 132.4 101.306 135.8 88.7458 136.08C87.9858 136.08 87.4258 136.8 87.5858 137.52L88.1458 140.36C88.3058 141.16 89.0258 141.72 89.8658 141.68C105.586 140.88 111.106 135.4 111.106 126.08C111.106 117.92 105.546 112.88 96.8658 112.88ZM139.306 110.72C128.626 110.72 121.146 119.6 121.146 128.88C121.146 135.08 124.266 141.04 129.226 141.04C135.866 141.04 140.426 130.96 141.026 116.08C147.226 116.64 149.866 120.48 149.866 125.92C149.866 131.2 147.666 135.64 139.226 137.44C138.506 137.6 138.146 138.4 138.466 139.08L139.786 141.72C140.186 142.48 141.026 142.88 141.866 142.64C152.466 139.76 155.586 133.12 155.586 125.8C155.586 117.88 151.266 110.72 139.306 110.72ZM129.346 134.96C127.706 134.96 126.426 132.4 126.426 128.72C126.426 123.08 129.706 118.04 135.506 116.48C135.106 128.64 131.706 134.96 129.346 134.96ZM198.715 120.04V117.44C198.715 116.72 198.115 116.12 197.395 116.12H184.835V109.8C184.835 109 184.195 108.36 183.395 108.36H180.515C179.715 108.36 179.075 109 179.075 109.8V116.12H166.675C165.955 116.12 165.355 116.72 165.355 117.44V120.04C165.355 120.76 165.955 121.36 166.675 121.36H179.075V136.12C179.075 137.48 178.635 137.92 177.355 137.92C176.635 137.92 175.675 137.88 174.755 137.8C174.035 137.76 173.435 138.32 173.435 139.04V141.72C173.435 142.48 174.035 143.08 174.795 143.12C176.355 143.2 177.835 143.28 178.955 143.28C182.995 143.28 184.835 141.52 184.835 136.8V121.36H197.395C198.115 121.36 198.715 120.76 198.715 120.04ZM174.995 126.6L172.475 125.6C171.755 125.32 170.915 125.6 170.595 126.28C169.115 129.32 166.675 132.52 164.195 135.04C163.675 135.56 163.755 136.4 164.315 136.8L166.555 138.36C167.195 138.8 168.075 138.72 168.595 138.16C171.395 135.24 173.755 131.84 175.635 128.28C175.955 127.64 175.675 126.88 174.995 126.6ZM199.915 134.6C198.035 131.6 195.915 128.72 193.395 125.76C192.875 125.16 191.995 125.04 191.315 125.44L188.995 126.8C188.395 127.16 188.235 128 188.715 128.52C191.235 131.48 193.355 134.4 194.995 137.4C195.395 138.08 196.235 138.36 196.915 137.96L199.435 136.52C200.115 136.12 200.315 135.28 199.915 134.6ZM194.635 115.08C197.075 115.08 199.035 113.08 199.035 110.68C199.035 108.24 197.075 106.28 194.635 106.28C192.195 106.28 190.235 108.24 190.235 110.68C190.235 113.08 192.195 115.08 194.635 115.08ZM194.635 107.96C196.115 107.96 197.355 109.2 197.355 110.68C197.355 112.16 196.115 113.4 194.635 113.4C193.155 113.4 191.915 112.16 191.915 110.68C191.915 109.2 193.155 107.96 194.635 107.96ZM238.814 111L236.574 109.24C235.934 108.76 235.054 108.8 234.534 109.4C229.334 115.28 218.134 122.96 209.694 126.08C208.974 126.36 208.654 127.2 209.054 127.84L210.574 130.4C211.014 131.12 211.934 131.4 212.694 131.08C216.134 129.6 219.814 127.6 223.414 125.32V141.8C223.414 142.64 224.094 143.28 224.934 143.28H227.894C228.734 143.28 229.414 142.64 229.414 141.8V121.24C233.094 118.52 236.454 115.64 238.974 112.92C239.494 112.36 239.414 111.48 238.814 111ZM260.099 121.76L261.939 119.44C262.459 118.8 262.339 117.84 261.699 117.36C259.499 115.68 256.499 113.68 253.779 112.08C253.059 111.68 252.139 111.84 251.659 112.48L249.899 114.8C249.419 115.4 249.579 116.24 250.259 116.64C252.899 118.16 255.939 120.28 258.019 122C258.659 122.52 259.579 122.4 260.099 121.76ZM279.619 121.6L277.779 119.44C277.339 118.88 276.459 118.92 276.059 119.52C270.659 127.52 261.139 134.4 251.579 137.2C250.819 137.44 250.419 138.32 250.819 139.04L252.299 141.76C252.739 142.56 253.659 142.92 254.499 142.6C264.179 139.08 274.139 131.84 279.699 123.84C280.179 123.16 280.179 122.24 279.619 121.6ZM315.032 128C310.112 124.8 304.072 121.52 298.792 119.16V109.76C298.792 108.96 298.152 108.32 297.352 108.32H294.432C293.632 108.32 292.952 108.96 292.952 109.76V141.84C292.952 142.64 293.632 143.28 294.432 143.28H297.352C298.152 143.28 298.792 142.64 298.792 141.84V125.32C303.112 127.44 307.592 130.04 311.312 132.72C311.992 133.2 312.992 133.12 313.512 132.44L315.352 130.04C315.872 129.4 315.712 128.44 315.032 128Z" fill="#242424"/>
</svg>
